<svg width="473" height="185" viewBox="0 0 473 185" fill="none" xmlns="http://www.w3.org/2000/svg">
<g clip-path="url(#clip0)">
<path d="M169.4 41.1C152.8 16.3 124.5 0 92.5 0C41.5 0 0 41.5 0 92.5C0 143.5 41.5 185 92.5 185C124.5 185 152.7 168.7 169.3 143.9L162.4 139.3C147.3 161.8 121.6 176.7 92.5 176.7C46.1 176.7 8.3 139 8.3 92.5C8.3 46 46.1 8.3 92.5 8.3C121.6 8.3 147.3 23.2 162.4 45.7L169.4 41.1Z" fill="#1B1B1B"/>
<path d="M92.5008 118.7C78.0008 118.7 66.3008 106.9 66.3008 92.5001C66.3008 78.0001 78.1008 66.3 92.5008 66.3C101.601 66.3 109.601 70.9001 114.301 78.0001L107.401 82.6001C104.201 77.8001 98.7008 74.6001 92.5008 74.6001C82.6008 74.6001 74.6008 82.6001 74.6008 92.5001C74.6008 102.4 82.6008 110.4 92.5008 110.4C98.7008 110.4 104.201 107.2 107.401 102.4L114.301 107C109.601 114.1 101.601 118.7 92.5008 118.7Z" fill="#1B1B1B"/>
<path d="M132.701 119.3L125.801 114.7C118.601 125.4 106.401 132.5 92.6008 132.5C70.5008 132.5 52.6008 114.6 52.6008 92.5C52.6008 70.4 70.5008 52.5 92.6008 52.5C106.401 52.5 118.701 59.5999 125.801 70.2999L132.701 65.7C124.001 52.8 109.301 44.2 92.6008 44.2C66.0008 44.2 44.3008 65.9 44.3008 92.5C44.3008 119.1 66.0008 140.8 92.6008 140.8C109.201 140.8 124.001 132.2 132.701 119.3Z" fill="#1B1B1B"/>
<path d="M92.5016 162.9C53.7016 162.9 22.1016 131.3 22.1016 92.5001C22.1016 53.7001 53.7016 22.1001 92.5016 22.1001C116.902 22.1001 138.402 34.5001 151.002 53.4001L144.102 58.0001C133.002 41.4001 114.002 30.4001 92.5016 30.4001C58.3016 30.4001 30.4016 58.2001 30.4016 92.5001C30.4016 126.8 58.2016 154.6 92.5016 154.6C114.002 154.6 132.902 143.6 144.102 127L151.002 131.6C138.402 150.4 116.902 162.9 92.5016 162.9Z" fill="#1B1B1B"/>
<path d="M466.699 101.1C465.899 103.2 464.299 104.7 461.399 104.7C458.299 104.7 455.699 102.5 455.499 99.3999H472.199C472.199 99.2999 472.299 98.4 472.299 97.5C472.299 90 467.999 85.3999 460.799 85.3999C454.799 85.3999 449.299 90.2 449.299 97.7C449.299 105.6 454.899 110.2 461.299 110.2C466.999 110.2 470.699 106.8 471.899 102.8L466.699 101.1ZM455.599 95C455.699 92.9 457.499 90.3999 460.799 90.3999C464.399 90.3999 465.899 92.7 465.999 95H455.599ZM440.699 79H434.999V82.2999C434.999 84.3999 433.899 86 431.399 86H430.199V91.5999H434.399V102.4C434.399 106.9 437.199 109.6 441.799 109.6C443.599 109.6 444.799 109.3 445.399 109V103.8C445.099 103.9 444.199 104 443.499 104C441.699 104 440.699 103.3 440.699 101.3V91.5H445.399V85.8999H440.699V79ZM419.699 106.4C419.699 107.5 419.799 108.8 419.899 109.3H425.899C425.899 108.8 425.699 107.2 425.699 105.1V86H419.599V88.8999C418.999 87.5999 417.099 85.2999 412.899 85.2999C406.099 85.2999 401.699 90.7 401.699 97.5C401.699 104.6 406.299 109.9 413.099 109.9C416.199 109.9 418.599 108.3 419.599 106.1V106.4H419.699ZM407.999 97.5C407.999 93.2 410.499 90.7 413.799 90.7C417.099 90.7 419.499 93.2 419.499 97.5C419.499 101.8 416.999 104.5 413.799 104.5C410.499 104.5 407.999 101.8 407.999 97.5ZM378.199 102.8C378.499 105.5 380.899 110 387.899 110C393.999 110 396.999 106.1 396.999 102.3C396.999 98.8999 394.699 96.0999 390.099 95.0999L386.799 94.3999C385.499 94.1999 384.699 93.4999 384.699 92.2999C384.699 90.9999 385.999 90 387.699 90C390.399 90 391.399 91.7999 391.499 93.0999L396.799 91.8999C396.499 89.3999 394.299 85.2 387.599 85.2C382.599 85.2 378.899 88.6999 378.899 92.7999C378.899 96.0999 380.899 98.7999 385.399 99.7999L388.499 100.5C390.299 100.9 390.999 101.7 390.999 102.8C390.999 104 389.999 105.1 387.899 105.1C385.099 105.1 383.799 103.4 383.599 101.5L378.199 102.8ZM358.299 95.8999C358.299 93.1999 359.899 91.0999 362.699 91.0999C365.699 91.0999 366.999 93.1 366.999 95.7V109.3H373.299V94.5999C373.299 89.4999 370.599 85.3999 364.899 85.3999C362.399 85.3999 359.599 86.4999 358.199 88.8999V86H352.099V109.3H358.399V95.8999H358.299ZM340.999 101.1C340.199 103.2 338.599 104.7 335.699 104.7C332.599 104.7 329.999 102.5 329.799 99.3999H346.499C346.499 99.2999 346.599 98.4 346.599 97.5C346.599 90 342.299 85.3999 335.099 85.3999C329.099 85.3999 323.599 90.2 323.599 97.7C323.599 105.6 329.199 110.2 335.599 110.2C341.299 110.2 344.999 106.8 346.199 102.8L340.999 101.1ZM329.899 95C329.999 92.9 331.799 90.3999 335.099 90.3999C338.699 90.3999 340.199 92.7 340.299 95H329.899ZM312.699 97.5999C312.699 101.8 310.099 104.2 306.899 104.2C303.699 104.2 301.099 101.7 301.099 97.5999C301.099 93.4999 303.699 91.0999 306.899 91.0999C310.099 91.0999 312.699 93.4999 312.699 97.5999ZM301.199 118.3V107C302.299 108.6 304.699 109.8 307.899 109.8C314.499 109.8 318.899 104.6 318.899 97.5C318.899 90.6 314.999 85.3999 308.099 85.3999C304.599 85.3999 301.999 86.9999 300.899 88.7999V86H294.799V118.3H301.199ZM258.699 109.3V95.5999C258.699 92.9999 260.299 91 263.099 91C265.899 91 267.199 92.8999 267.199 95.3999V109.2H273.499V95.5C273.499 93 275.099 90.8999 277.799 90.8999C280.699 90.8999 281.899 92.7999 281.899 95.2999V109.1H287.999V94C287.999 87.7 283.899 85.0999 279.599 85.0999C276.499 85.0999 274.099 86.1 272.199 89C270.999 86.5 268.499 85.0999 265.299 85.0999C262.699 85.0999 259.799 86.2999 258.499 88.5999V85.7999H252.499V109.1H258.699V109.3ZM234.699 85.2999C227.699 85.2999 222.499 90.5 222.499 97.7C222.499 104.9 227.799 110.1 234.699 110.1C241.699 110.1 246.899 104.9 246.899 97.7C246.899 90.4 241.599 85.2999 234.699 85.2999ZM234.699 104.3C231.599 104.3 228.799 102 228.799 97.7C228.799 93.3 231.599 91.0999 234.699 91.0999C237.799 91.0999 240.599 93.3 240.599 97.7C240.599 102.1 237.799 104.3 234.699 104.3ZM202.499 110C211.899 110 216.799 103.7 218.099 98.5999L211.999 96.7999C211.099 99.8999 208.299 103.7 202.599 103.7C197.199 103.7 192.199 99.7999 192.199 92.5999C192.199 84.9999 197.499 81.3999 202.499 81.3999C208.299 81.3999 210.899 85 211.699 88.2L217.899 86.2999C216.599 80.7999 211.799 75.2 202.499 75.2C193.499 75.2 185.399 82 185.399 92.7C185.299 103.2 193.099 110 202.499 110Z" fill="#1B1B1B"/>
</g>
<defs>
<clipPath id="clip0">
<rect width="472.3" height="185" fill="white"/>
</clipPath>
</defs>
</svg>
