<svg id="compensate-logo-black" xmlns="http://www.w3.org/2000/svg" xmlns:xlink="http://www.w3.org/1999/xlink" width="472.3" height="185" viewBox="0 0 472.3 185">
  <defs>
    <clipPath id="clip-path">
      <rect id="Rectangle_1" data-name="Rectangle 1" width="472.3" height="185" fill="none" stroke="#fff" stroke-width="1"/>
    </clipPath>
  </defs>
  <g id="compensate-logo-black-2" data-name="compensate-logo-black" clip-path="url(#clip-path)">
    <path id="Path_1" data-name="Path 1" d="M169.4,41.1a92.575,92.575,0,1,0-.1,102.8l-6.9-4.6a84.2,84.2,0,1,1,0-93.6Z" fill="#fff"/>
    <path id="Path_2" data-name="Path 2" d="M92.5,118.7A26.2,26.2,0,1,1,114.3,78l-6.9,4.6a17.9,17.9,0,1,0,0,19.8l6.9,4.6A26.033,26.033,0,0,1,92.5,118.7Z" fill="#fff"/>
    <path id="Path_3" data-name="Path 3" d="M132.7,119.3l-6.9-4.6a40,40,0,1,1,0-44.4l6.9-4.6a48.3,48.3,0,1,0,0,53.6Z" fill="#fff"/>
    <path id="Path_4" data-name="Path 4" d="M92.5,162.9A70.4,70.4,0,1,1,151,53.4L144.1,58a62.1,62.1,0,1,0,0,69l6.9,4.6A70.4,70.4,0,0,1,92.5,162.9Z" fill="#fff"/>
    <path id="Path_5" data-name="Path 5" d="M466.7,101.1a5.222,5.222,0,0,1-5.3,3.6,5.736,5.736,0,0,1-5.9-5.3h16.7c0-.1.1-1,.1-1.9,0-7.5-4.3-12.1-11.5-12.1-6,0-11.5,4.8-11.5,12.3,0,7.9,5.6,12.5,12,12.5,5.7,0,9.4-3.4,10.6-7.4ZM455.6,95a5.006,5.006,0,0,1,5.2-4.6c3.6,0,5.1,2.3,5.2,4.6ZM440.7,79H435v3.3c0,2.1-1.1,3.7-3.6,3.7h-1.2v5.6h4.2v10.8c0,4.5,2.8,7.2,7.4,7.2a8.616,8.616,0,0,0,3.6-.6v-5.2a8.438,8.438,0,0,1-1.9.2c-1.8,0-2.8-.7-2.8-2.7V91.5h4.7V85.9h-4.7Zm-21,27.4a19.536,19.536,0,0,0,.2,2.9h6c0-.5-.2-2.1-.2-4.2V86h-6.1v2.9c-.6-1.3-2.5-3.6-6.7-3.6-6.8,0-11.2,5.4-11.2,12.2,0,7.1,4.6,12.4,11.4,12.4a6.914,6.914,0,0,0,6.5-3.8v.3ZM408,97.5c0-4.3,2.5-6.8,5.8-6.8s5.7,2.5,5.7,6.8-2.5,7-5.7,7C410.5,104.5,408,101.8,408,97.5Zm-29.8,5.3c.3,2.7,2.7,7.2,9.7,7.2,6.1,0,9.1-3.9,9.1-7.7,0-3.4-2.3-6.2-6.9-7.2l-3.3-.7c-1.3-.2-2.1-.9-2.1-2.1,0-1.3,1.3-2.3,3-2.3a3.45,3.45,0,0,1,3.8,3.1l5.3-1.2c-.3-2.5-2.5-6.7-9.2-6.7-5,0-8.7,3.5-8.7,7.6,0,3.3,2,6,6.5,7l3.1.7c1.8.4,2.5,1.2,2.5,2.3,0,1.2-1,2.3-3.1,2.3-2.8,0-4.1-1.7-4.3-3.6Zm-19.9-6.9c0-2.7,1.6-4.8,4.4-4.8,3,0,4.3,2,4.3,4.6v13.6h6.3V94.6c0-5.1-2.7-9.2-8.4-9.2a7.717,7.717,0,0,0-6.7,3.5V86h-6.1v23.3h6.3V95.9ZM341,101.1a5.222,5.222,0,0,1-5.3,3.6,5.736,5.736,0,0,1-5.9-5.3h16.7c0-.1.1-1,.1-1.9,0-7.5-4.3-12.1-11.5-12.1-6,0-11.5,4.8-11.5,12.3,0,7.9,5.6,12.5,12,12.5,5.7,0,9.4-3.4,10.6-7.4ZM329.9,95a5.006,5.006,0,0,1,5.2-4.6c3.6,0,5.1,2.3,5.2,4.6Zm-17.2,2.6c0,4.2-2.6,6.6-5.8,6.6s-5.8-2.5-5.8-6.6,2.6-6.5,5.8-6.5S312.7,93.5,312.7,97.6Zm-11.5,20.7V107c1.1,1.6,3.5,2.8,6.7,2.8,6.6,0,11-5.2,11-12.3,0-6.9-3.9-12.1-10.8-12.1-3.5,0-6.1,1.6-7.2,3.4V86h-6.1v32.3Zm-42.5-9V95.6a4.251,4.251,0,0,1,4.4-4.6c2.8,0,4.1,1.9,4.1,4.4v13.8h6.3V95.5a4.282,4.282,0,0,1,4.3-4.6c2.9,0,4.1,1.9,4.1,4.4v13.8H288V94c0-6.3-4.1-8.9-8.4-8.9a8.045,8.045,0,0,0-7.4,3.9c-1.2-2.5-3.7-3.9-6.9-3.9-2.6,0-5.5,1.2-6.8,3.5V85.8h-6v23.3h6.2Zm-24-24c-7,0-12.2,5.2-12.2,12.4a11.987,11.987,0,0,0,12.2,12.4c7,0,12.2-5.2,12.2-12.4C246.9,90.4,241.6,85.3,234.7,85.3Zm0,19c-3.1,0-5.9-2.3-5.9-6.6,0-4.4,2.8-6.6,5.9-6.6s5.9,2.2,5.9,6.6S237.8,104.3,234.7,104.3ZM202.5,110c9.4,0,14.3-6.3,15.6-11.4L212,96.8a9.375,9.375,0,0,1-9.4,6.9c-5.4,0-10.4-3.9-10.4-11.1,0-7.6,5.3-11.2,10.3-11.2,5.8,0,8.4,3.6,9.2,6.8l6.2-1.9c-1.3-5.5-6.1-11.1-15.4-11.1-9,0-17.1,6.8-17.1,17.5C185.3,103.2,193.1,110,202.5,110Z" fill="#fff"/>
  </g>
</svg>
