<svg xmlns="http://www.w3.org/2000/svg" width="600" height="277" viewBox="0 0 600 277">
  <g id="posti-vector-logo" transform="translate(-26 -187.5)">
    <path id="Path_6" data-name="Path 6" d="M233,312.5c2.5-22.5,19-38.5,42-38.5s40,16,42,38.5h36.5c-2.5-41.5-36-73.5-78-73.5s-76,32-78.5,73.5Zm-84.5,9c-1,24.5-19,41.5-43,41.5s-42-17-42.5-41.5H26v143H62.5V381H63c10,10,24,17,44,17,43,0,76.5-32.5,77.5-76.5Zm-85.5-9c2-23,19.5-38.5,42.5-38.5s40.5,16,43,38.5H185c-2.5-42-34-73.5-76-73.5-20,0-36,7.5-45.5,17.5h-1V242H26v70.5ZM570.5,395H607V321.5H570.5ZM491,395h36.5V321.5H491Zm-42.5-73.5h-71a173.9,173.9,0,0,0,27,14c15,5.5,20.5,9,20.5,16s-8,11-18,11c-12,0-20.5-4.5-29-12l-24,24c14,14,28.5,23.5,53.5,23.5,26.5,0,54-19,54-47.5C461.5,338,456,328.5,448.5,321.5Zm-131,0c-1,24.5-18,41.5-42.5,41.5-24,0-41.5-17.5-42.5-41.5H196a78.526,78.526,0,0,0,157,0ZM607,242H570.5v70.5H607ZM491,312.5h36.5V274H561V242H527.5V187.5H491V242H463.5v32H491Zm-52.5,0c-7-4.5-15.5-8-23-10.5-14-5-20.5-8.5-20.5-16.5,0-6.5,6.5-11,15-11A37.269,37.269,0,0,1,435.5,285L459,259.5c-14-13-28.5-20-49-20-21,0-49.5,16.5-49.5,47.5a38.519,38.519,0,0,0,9,25.5Z" fill="#0c1111"/>
    <path id="Path_7" data-name="Path 7" d="M601.5,196c-2.5,0-8,4.5-8,22,5.5-4.5,11-13.5,11-18.5C604,197,603.5,196,601.5,196ZM578,207.5c-2,0-3,1.5-3,3.5,0,5,5,8,10.5,9v-1.5C585.5,212.5,582.5,207.5,578,207.5ZM565,221c4.5,3.5,8,7,12,7a7.745,7.745,0,0,0,4-1c-8.5-2.5-13.5-9.5-13.5-16,0-6,4-10.5,10.5-10.5,4,0,7,2,9.5,4,2.5-10,8.5-15.5,15-15.5,6,0,9,4.5,9,11,0,8-7.5,21-16.5,26a5.517,5.517,0,0,0,5,2.5c8,0,15-7,19.5-12.5a4.322,4.322,0,0,1,3-1.5A3.418,3.418,0,0,1,626,218a3.819,3.819,0,0,1-1,2.5c-4.5,5-13.5,15-25,15a13.207,13.207,0,0,1-11-5.5,15.214,15.214,0,0,1-12,5.5c-5,0-10-3.5-14.5-7-2-1.5-4.5-3.5-6-4.5a6.294,6.294,0,0,0-3.5-2,3.663,3.663,0,0,1-4-4c0-2,1.5-3.5,4-3.5,2,0,4,1,6,2A23.5,23.5,0,0,1,565,221Z" fill="#0c1111"/>
  </g>
</svg>
